<?xml version="1.0" encoding="UTF-8"?>
<svg width="59px" height="24px" viewBox="0 0 59 24" version="1.1" xmlns="http://www.w3.org/2000/svg" xmlns:xlink="http://www.w3.org/1999/xlink">
    <!-- Generator: Sketch 52.6 (67491) - http://www.bohemiancoding.com/sketch -->
    <g id="Icons" stroke="none" stroke-width="1" fill="none" fill-rule="evenodd">
        <g id="logo" fill="#686868">
            <path d="M-2.87769808e-13,23.7241412 L-2.87769808e-13,22.2357882 L11.4582353,22.2357882 L11.4582353,23.7241412 L-2.87769808e-13,23.7241412 Z M-2.87769808e-13,20.5992 L-2.87769808e-13,19.1108471 L11.4582353,19.1108471 L11.4582353,20.5992 L-2.87769808e-13,20.5992 Z M3.27352941,17.4742588 L3.27352941,15.9859059 L8.18435294,15.9859059 L8.18435294,17.4742588 L3.27352941,17.4742588 Z M3.27352941,14.3493176 L3.27352941,12.8609647 L8.18435294,12.8609647 L8.18435294,14.3493176 L3.27352941,14.3493176 Z M3.27352941,11.2240235 L3.27352941,9.73602353 L8.18435294,9.73602353 L8.18435294,11.2240235 L3.27352941,11.2240235 Z M3.27352941,8.09943529 L3.27352941,6.61108235 L8.18435294,6.61108235 L8.18435294,8.09943529 L3.27352941,8.09943529 Z M-2.87769808e-13,4.97414118 L-2.87769808e-13,3.48578824 L11.4582353,3.48578824 L11.4582353,4.97414118 L-2.87769808e-13,4.97414118 Z M-2.87769808e-13,1.8492 L-2.87769808e-13,0.3612 L11.4582353,0.3612 L11.4582353,1.8492 L-2.87769808e-13,1.8492 Z M13.0953529,19.1110941 L31.1807647,19.1110941 C31.0381765,19.6380353 30.8278235,20.1370941 30.5606471,20.5990941 L13.0953529,20.5990941 L13.0953529,19.1110941 Z M16.3690588,17.4742588 L16.3690588,15.9859059 L21.2798824,15.9859059 L21.2798824,17.4742588 L16.3690588,17.4742588 Z M29.3051647,12.8608588 C29.7774,13.2918 30.1836353,13.7929765 30.5058706,14.3492118 L16.3691647,14.3492118 L16.3691647,12.8608588 L29.3051647,12.8608588 Z M16.3690235,9.73609412 L30.5597294,9.73609412 C30.2371412,10.2923294 29.8309059,10.7931529 29.3590235,11.2240941 L16.3690235,11.2240941 L16.3690235,9.73609412 Z M31.1808353,4.97414118 L13.0954235,4.97414118 L13.0954235,3.48578824 L30.5607176,3.48578824 C30.8278941,3.94814118 31.0382471,4.4472 31.1808353,4.97414118 Z M29.1948706,1.84902353 L13.0954588,1.84902353 L13.0954588,0.361023529 L25.1487529,0.361023529 C26.6925176,0.361023529 28.1042824,0.921847059 29.1948706,1.84902353 Z M16.3690588,8.09908235 L16.3690588,6.61072941 L21.2798824,6.61072941 L21.2798824,8.09908235 L16.3690588,8.09908235 Z M25.8929294,8.09925882 L25.8929294,6.61090588 L31.3988118,6.61090588 C31.3988118,7.12408235 31.3335176,7.62172941 31.2166941,8.09925882 L25.8929294,8.09925882 Z M25.8929294,15.9859765 L31.2166941,15.9859765 C31.3335176,16.4635059 31.3988118,16.9608 31.3988118,17.4743294 L25.8929294,17.4743294 L25.8929294,15.9859765 Z M41.9641412,0.3528 L42.4804941,1.84115294 L32.7379059,1.84115294 L32.7379059,0.3528 L41.9641412,0.3528 Z M32.7381176,23.7241412 L32.7381176,22.2354353 L40.9252941,22.2354353 L40.9252941,23.7241412 L32.7381176,23.7241412 Z M32.7381176,20.5981412 L32.7381176,19.1094353 L40.9252941,19.1094353 L40.9252941,20.5981412 L32.7381176,20.5981412 Z M36.0130588,17.4717882 L36.0130588,15.9834353 L40.9252941,15.9834353 L40.9252941,17.4717882 L36.0130588,17.4717882 Z M36.0130588,14.3461412 L36.0130588,12.8574353 L40.9252941,12.8574353 L40.9252941,14.3461412 L36.0130588,14.3461412 Z M50.7504706,23.7241412 L50.7504706,22.2354353 L58.9376471,22.2354353 L58.9376471,23.7241412 L50.7504706,23.7241412 Z M50.7504706,20.5981412 L50.7504706,19.1094353 L58.9376471,19.1094353 L58.9376471,20.5981412 L50.7504706,20.5981412 Z M50.7504706,17.4717882 L50.7504706,15.9834353 L55.6627059,15.9834353 L55.6627059,17.4717882 L50.7504706,17.4717882 Z M50.7504706,14.3461412 L50.7504706,12.8574353 L55.6627059,12.8574353 L55.6627059,14.3461412 L50.7504706,14.3461412 Z M50.7504706,11.2198941 L50.7504706,9.80212941 L50.2496471,11.2198941 L45.9381176,11.2198941 L46.4548235,9.73118824 L50.7504706,9.73118824 L55.6627059,9.73118824 L55.6627059,11.2198941 L50.7504706,11.2198941 Z M45.2209412,9.73125882 L45.7376471,11.2199647 L41.4257647,11.2199647 L40.9252941,9.8022 L40.9252941,11.2199647 L36.0130588,11.2199647 L36.0130588,9.73125882 L40.9252941,9.73125882 L45.2209412,9.73125882 Z M55.6626706,6.60511765 L55.6626706,8.09382353 L47.0230235,8.09382353 L47.5390235,6.60511765 L55.6626706,6.60511765 Z M49.7081647,0.353152941 L58.9375765,0.353152941 L58.9375765,1.84185882 L49.1918118,1.84185882 L49.7081647,0.353152941 Z M45.8347765,23.7241412 L45.3148941,22.2354353 L46.3606588,22.2354353 L45.8347765,23.7241412 Z M44.7370235,20.598 L44.2114941,19.1092941 L47.4645529,19.1092941 L46.9386706,20.598 L44.7370235,20.598 Z M43.6333765,17.4718588 L43.1078471,15.9835059 L48.5678471,15.9835059 L48.0423176,17.4718588 L43.6333765,17.4718588 Z M42.5297647,14.3460353 L42.0042353,12.8573294 L49.6715294,12.8573294 L49.146,14.3460353 L42.5297647,14.3460353 Z M36.0130941,8.09375294 L36.0130941,6.60504706 L44.1363882,6.60504706 L44.6527412,8.09375294 L36.0130941,8.09375294 Z M48.1071882,4.96757647 L48.6238941,3.47887059 L58.9378941,3.47887059 L58.9378941,4.96757647 L48.1071882,4.96757647 Z M43.0519412,3.47897647 L43.5682941,4.96768235 L32.7379412,4.96768235 L32.7379412,3.47897647 L43.0519412,3.47897647 Z M13.0953529,22.2358588 L29.1947647,22.2358588 C28.1041765,23.1633882 26.6924118,23.7242118 25.1486471,23.7242118 L13.0953529,23.7242118 L13.0953529,22.2358588 Z" id="logo-color"></path>
        </g>
    </g>
</svg>